<?xml version="1.0" standalone="no"?>
<!DOCTYPE svg PUBLIC "-//W3C//DTD SVG 20010904//EN"
 "http://www.w3.org/TR/2001/REC-SVG-20010904/DTD/svg10.dtd">
<svg version="1.0" xmlns="http://www.w3.org/2000/svg"
 width="747.000000pt" height="1280.000000pt" viewBox="0 0 747.000000 1280.000000"
 preserveAspectRatio="xMidYMid meet">
<metadata>
Created by potrace 1.15, written by Peter Selinger 2001-2017
</metadata>
<g transform="translate(0.000000,1280.000000) scale(0.100000,-0.100000)"
fill="#000000" stroke="none">
<path d="M3951 12642 c-44 -193 -156 -613 -221 -827 -314 -1042 -738 -1994
-1288 -2890 -242 -395 -429 -670 -922 -1360 -185 -258 -395 -555 -467 -660
-647 -941 -933 -1640 -1029 -2510 -22 -197 -25 -750 -6 -950 94 -959 389
-1677 936 -2278 207 -226 526 -477 823 -646 822 -467 1903 -630 2948 -446
1149 203 1997 850 2413 1841 161 382 257 787 309 1299 24 246 24 786 0 985
-84 674 -298 1255 -773 2093 -46 81 -221 376 -388 655 -510 852 -637 1074
-855 1491 -668 1271 -1125 2614 -1396 4095 -25 137 -46 251 -48 252 -1 1 -17
-64 -36 -144z"/>
</g>
</svg>
